/* XPM */
static char *result[] = {
/* columns rows colors chars-per-pixel */
"64 64 8 1 ",
"  c black",
". c #190D06",
"X c #381E0D",
"o c #223D00",
"O c #77D300",
"+ c #B79900",
"@ c #FFD800",
"# c None",
/* pixels */
"################################################################",
"################################################################",
"################################################################",
"################################################################",
"################################################################",
"################################################################",
"################################################################",
"################################################################",
"################################################################",
"################################################################",
"########################O#######################################",
"########################o##################o####################",
"#########################oo##       #oo###o#####################",
"#########################Oo# +++@@@@ #o##oo#####################",
"#########################Oo ++@@@@@@@ o#oOo#####################",
"###################O#o###o ++@@@@@@@@ OOoo######################",
"################oo##oo###o ++@@@@@@@@ oOooooo###################",
"#################oooooo#oo ++@@@@@@@@@ OoOOo####################",
"##################oOOooooO ++@@@@@@@@@ o       #################",
"################oo#oOOOooo ++@@@@@@@@@  ++++@@@ ################",
"##############Oo#####ooOOO ++@@@@@@@@@ ++@@@@@@@ ###############",
"###################       o ++@+++@@@ ++@@@@@@@@ ###############",
"#################  ++++@@@  +++++++++ ++@@@@@@@@ ###############",
"################# ++@@@@@@@@ ++   ++ ++@@@@@@@@@ #o#############",
"################ ++@@@@@@@@@@  ...   ++@@@@@@@@@ oO#############",
"################ ++@@@@@@@@@ ...XXXX ++@@@@@@@@@ ###############",
"################ ++@@@@@@@@ .XXXXXXXX ++@@@@@@@@ o##############",
"################ ++@@@@@@@ ..XXXXXXXXX ++@@@@@@ oo##############",
"################ +++@@@@@@ .XXXXXXXXXX +++@@+++ OOooo###########",
"################# +++@@@@@ .XXXXXXXXXX ++++++  Oo###############",
"############oo##oo  ++++++ ..XXXXXXXXX       oOoo###############",
"##############ooOOOO +++++ ..XXXXXXXX. @@@@@@  oooo#############",
"################ooooo       ...XXXX.. +@@@@@@@ #oo##############",
"###################oooOo +++  ...... +@@@@@@@@@ ##ooO###########",
"##################ooooO ++@@@@      ++@@@@@@@@@ ################",
"##################ooooo ++@@@@@@@@@ ++@@@@@@@@@ ################",
"#################ooOO# ++@@@@@@@@@@ ++@@@@@@@@@ ################",
"#################o#Oo# ++@@@@@@@@@@ +++@@@@@@@+ ################",
"#################o### ++@@@@@@@@@@@  ++++++++++ ################",
"################oo### ++@@@@@@@@@@@ O  +++++++ #################",
"###############oo#### ++@@@@@@@@@@ oooo       ##################",
"###############o###### ++@@@@@@@@@ Oo#oOO#######################",
"###################### +++@@@@@@++ ooo#ooo######################",
"####################### ++++++++  O##oo#########################",
"######################## ++++++ ##O##ooO########################",
"#########################      ###o##o##########################",
"##################################o#############################",
"###################################o############################",
"################################################################",
"################################################################",
"################################################################",
"################################################################",
"################################################################",
"################################################################",
"################################################################",
"################################################################",
"################################################################",
"################################################################",
"################################################################",
"################################################################",
"################################################################",
"################################################################",
"################################################################",
"################################################################"
};
